<mxfile host="app.diagrams.net" modified="2023-10-12T02:52:06.391Z" agent="Mozilla/5.0 (Macintosh; Intel Mac OS X 10_15_7) AppleWebKit/537.36 (KHTML, like Gecko) Chrome/117.0.0.0 Safari/537.36 Edg/117.0.2045.40" etag="L9T_q0tvtlTVESXPT59e" version="21.7.2" type="github">
  <diagram name="第 1 页" id="wdnxUxDQh5qZpy7v3uiz">
    <mxGraphModel dx="1332" dy="752" grid="1" gridSize="10" guides="1" tooltips="1" connect="1" arrows="1" fold="1" page="1" pageScale="1" pageWidth="827" pageHeight="1169" math="0" shadow="0">
      <root>
        <mxCell id="0" />
        <mxCell id="1" parent="0" />
        <mxCell id="n5quvRpB_-GBomkRcWhm-1" value="" style="whiteSpace=wrap;html=1;aspect=fixed;" vertex="1" parent="1">
          <mxGeometry x="370" y="410" width="80" height="80" as="geometry" />
        </mxCell>
        <mxCell id="n5quvRpB_-GBomkRcWhm-2" value="" style="whiteSpace=wrap;html=1;aspect=fixed;fillColor=#ffe6cc;strokeColor=#d79b00;" vertex="1" parent="1">
          <mxGeometry x="20" y="40" width="700" height="700" as="geometry" />
        </mxCell>
        <mxCell id="n5quvRpB_-GBomkRcWhm-3" value="&lt;font style=&quot;font-size: 24px;&quot;&gt;负载均衡&lt;/font&gt;" style="rounded=1;whiteSpace=wrap;html=1;fillColor=#f5f5f5;fontColor=#333333;strokeColor=#666666;" vertex="1" parent="1">
          <mxGeometry x="50" y="100" width="70" height="530" as="geometry" />
        </mxCell>
        <mxCell id="n5quvRpB_-GBomkRcWhm-26" value="" style="group" vertex="1" connectable="0" parent="1">
          <mxGeometry x="230" y="110" width="450" height="185" as="geometry" />
        </mxCell>
        <mxCell id="n5quvRpB_-GBomkRcWhm-19" value="" style="rounded=1;whiteSpace=wrap;html=1;fillColor=#dae8fc;fillStyle=auto;strokeColor=#6c8ebf;arcSize=14;" vertex="1" parent="n5quvRpB_-GBomkRcWhm-26">
          <mxGeometry x="-50" width="500" height="185" as="geometry" />
        </mxCell>
        <mxCell id="n5quvRpB_-GBomkRcWhm-22" value="&lt;font style=&quot;font-size: 18px;&quot;&gt;ws链接层&lt;/font&gt;" style="rounded=1;whiteSpace=wrap;html=1;fillColor=#f5f5f5;fontColor=#333333;strokeColor=#666666;" vertex="1" parent="n5quvRpB_-GBomkRcWhm-26">
          <mxGeometry x="91.67682926829268" y="20" width="150" height="60" as="geometry" />
        </mxCell>
        <mxCell id="n5quvRpB_-GBomkRcWhm-23" value="&lt;font style=&quot;font-size: 18px;&quot;&gt;ws链接层&lt;/font&gt;" style="rounded=1;whiteSpace=wrap;html=1;fillColor=#f5f5f5;fontColor=#333333;strokeColor=#666666;" vertex="1" parent="n5quvRpB_-GBomkRcWhm-26">
          <mxGeometry x="262.5" y="20" width="150" height="60" as="geometry" />
        </mxCell>
        <mxCell id="n5quvRpB_-GBomkRcWhm-24" value="&lt;font style=&quot;font-size: 18px;&quot;&gt;ws链接层&lt;/font&gt;" style="rounded=1;whiteSpace=wrap;html=1;fillColor=#f5f5f5;fontColor=#333333;strokeColor=#666666;" vertex="1" parent="n5quvRpB_-GBomkRcWhm-26">
          <mxGeometry x="91.67682926829268" y="100" width="150" height="60" as="geometry" />
        </mxCell>
        <mxCell id="n5quvRpB_-GBomkRcWhm-25" value="&lt;font style=&quot;font-size: 18px;&quot;&gt;ws链接层&lt;/font&gt;" style="rounded=1;whiteSpace=wrap;html=1;fillColor=#f5f5f5;fontColor=#333333;strokeColor=#666666;" vertex="1" parent="n5quvRpB_-GBomkRcWhm-26">
          <mxGeometry x="262.5" y="100" width="150" height="60" as="geometry" />
        </mxCell>
        <mxCell id="n5quvRpB_-GBomkRcWhm-28" value="&lt;font style=&quot;font-size: 24px;&quot;&gt;连接层&lt;/font&gt;" style="text;html=1;strokeColor=none;fillColor=none;align=center;verticalAlign=middle;whiteSpace=wrap;rounded=0;labelBackgroundColor=default;" vertex="1" parent="n5quvRpB_-GBomkRcWhm-26">
          <mxGeometry x="-21" y="42.5" width="82.32" height="100" as="geometry" />
        </mxCell>
        <mxCell id="n5quvRpB_-GBomkRcWhm-29" value="" style="group" vertex="1" connectable="0" parent="1">
          <mxGeometry x="230" y="330" width="450" height="185" as="geometry" />
        </mxCell>
        <mxCell id="n5quvRpB_-GBomkRcWhm-30" value="" style="rounded=1;whiteSpace=wrap;html=1;fillColor=#dae8fc;fillStyle=auto;strokeColor=#6c8ebf;arcSize=14;" vertex="1" parent="n5quvRpB_-GBomkRcWhm-29">
          <mxGeometry x="-50" width="500" height="185" as="geometry" />
        </mxCell>
        <mxCell id="n5quvRpB_-GBomkRcWhm-31" value="&lt;span style=&quot;font-size: 18px;&quot;&gt;业务处理层&lt;/span&gt;" style="rounded=1;whiteSpace=wrap;html=1;fillColor=#f5f5f5;fontColor=#333333;strokeColor=#666666;" vertex="1" parent="n5quvRpB_-GBomkRcWhm-29">
          <mxGeometry x="91.67682926829268" y="20" width="150" height="60" as="geometry" />
        </mxCell>
        <mxCell id="n5quvRpB_-GBomkRcWhm-32" value="&lt;font style=&quot;font-size: 18px;&quot;&gt;业务处理层&lt;/font&gt;" style="rounded=1;whiteSpace=wrap;html=1;fillColor=#f5f5f5;fontColor=#333333;strokeColor=#666666;" vertex="1" parent="n5quvRpB_-GBomkRcWhm-29">
          <mxGeometry x="262.5" y="20" width="150" height="60" as="geometry" />
        </mxCell>
        <mxCell id="n5quvRpB_-GBomkRcWhm-33" value="&lt;span style=&quot;font-size: 18px;&quot;&gt;业务处理层&lt;/span&gt;" style="rounded=1;whiteSpace=wrap;html=1;fillColor=#f5f5f5;fontColor=#333333;strokeColor=#666666;" vertex="1" parent="n5quvRpB_-GBomkRcWhm-29">
          <mxGeometry x="91.67682926829268" y="100" width="150" height="60" as="geometry" />
        </mxCell>
        <mxCell id="n5quvRpB_-GBomkRcWhm-34" value="&lt;span style=&quot;font-size: 18px;&quot;&gt;业务处理层&lt;/span&gt;" style="rounded=1;whiteSpace=wrap;html=1;fillColor=#f5f5f5;fontColor=#333333;strokeColor=#666666;" vertex="1" parent="n5quvRpB_-GBomkRcWhm-29">
          <mxGeometry x="262.5" y="100" width="150" height="60" as="geometry" />
        </mxCell>
        <mxCell id="n5quvRpB_-GBomkRcWhm-35" value="&lt;span style=&quot;font-size: 24px;&quot;&gt;业务层&lt;/span&gt;" style="text;html=1;strokeColor=none;fillColor=none;align=center;verticalAlign=middle;whiteSpace=wrap;rounded=0;labelBackgroundColor=default;" vertex="1" parent="n5quvRpB_-GBomkRcWhm-29">
          <mxGeometry x="-21" y="42.5" width="82.32" height="100" as="geometry" />
        </mxCell>
        <mxCell id="n5quvRpB_-GBomkRcWhm-36" value="&lt;font style=&quot;font-size: 24px;&quot;&gt;Mysql&lt;/font&gt;" style="rounded=1;whiteSpace=wrap;html=1;fillColor=#f5f5f5;fontColor=#333333;strokeColor=#666666;" vertex="1" parent="1">
          <mxGeometry x="190" y="570" width="120" height="60" as="geometry" />
        </mxCell>
        <mxCell id="n5quvRpB_-GBomkRcWhm-37" value="&lt;span style=&quot;font-size: 24px;&quot;&gt;Redis&lt;/span&gt;" style="rounded=1;whiteSpace=wrap;html=1;fillColor=#f5f5f5;fontColor=#333333;strokeColor=#666666;" vertex="1" parent="1">
          <mxGeometry x="360" y="570" width="120" height="60" as="geometry" />
        </mxCell>
        <mxCell id="n5quvRpB_-GBomkRcWhm-38" value="&lt;span style=&quot;font-size: 24px;&quot;&gt;Apollo&lt;/span&gt;" style="rounded=1;whiteSpace=wrap;html=1;fillColor=#f5f5f5;fontColor=#333333;strokeColor=#666666;" vertex="1" parent="1">
          <mxGeometry x="530" y="570" width="120" height="60" as="geometry" />
        </mxCell>
      </root>
    </mxGraphModel>
  </diagram>
</mxfile>
